<mxfile host="drawio-plugin" modified="2021-12-04T10:31:44.835Z" agent="5.0 (X11; Linux x86_64) AppleWebKit/537.36 (KHTML, like Gecko) Chrome/89.0.4389.114 Safari/537.36" etag="a5x4e2Tpw8um9X5Xkohv" version="14.7.4" type="embed"><diagram id="IkW5EahsH3ITQZoJLV1T" name="Page-1"><mxGraphModel dx="582" dy="746" grid="1" gridSize="10" guides="1" tooltips="1" connect="1" arrows="1" fold="1" page="1" pageScale="1" pageWidth="827" pageHeight="1169" math="0" shadow="0"><root><mxCell id="0"/><mxCell id="1" parent="0"/><mxCell id="2" value="" style="rounded=1;whiteSpace=wrap;html=1;fillColor=#ffe6cc;strokeColor=#d79b00;" parent="1" vertex="1"><mxGeometry x="160" y="170" width="120" height="60" as="geometry"/></mxCell><mxCell id="3" value="Hello World" style="text;html=1;strokeColor=none;fillColor=none;align=center;verticalAlign=middle;whiteSpace=wrap;rounded=0;" parent="1" vertex="1"><mxGeometry x="160" y="175" width="120" height="50" as="geometry"/></mxCell><mxCell id="6" style="edgeStyle=orthogonalEdgeStyle;rounded=0;orthogonalLoop=1;jettySize=auto;html=1;entryX=0.5;entryY=1;entryDx=0;entryDy=0;" edge="1" parent="1" source="4" target="2"><mxGeometry relative="1" as="geometry"/></mxCell><mxCell id="4" value="" style="rounded=1;whiteSpace=wrap;html=1;fillColor=#ffe6cc;strokeColor=#d79b00;" vertex="1" parent="1"><mxGeometry x="160" y="280" width="120" height="60" as="geometry"/></mxCell><mxCell id="5" value="Hello World" style="text;html=1;strokeColor=none;fillColor=none;align=center;verticalAlign=middle;whiteSpace=wrap;rounded=0;" vertex="1" parent="1"><mxGeometry x="160" y="285" width="120" height="50" as="geometry"/></mxCell></root></mxGraphModel></diagram></mxfile>